<?xml version="1.0" encoding="UTF-8"?>
<!DOCTYPE svg PUBLIC "-//W3C//DTD SVG 1.1//EN" "http://www.w3.org/Graphics/SVG/1.1/DTD/svg11.dtd">
<svg xmlns="http://www.w3.org/2000/svg" version="1.1" width="512px" height="512px" style="shape-rendering:geometricPrecision; text-rendering:geometricPrecision; image-rendering:optimizeQuality; fill-rule:evenodd; clip-rule:evenodd" xmlns:xlink="http://www.w3.org/1999/xlink">
<g><path style="opacity:0.979" fill="#010102" d="M 511.5,258.5 C 511.5,267.833 511.5,277.167 511.5,286.5C 509.549,296.361 506.549,306.028 502.5,315.5C 506.764,325.245 509.764,335.245 511.5,345.5C 511.5,354.167 511.5,362.833 511.5,371.5C 504.626,410.552 482.96,438.052 446.5,454C 438.659,456.627 430.659,458.627 422.5,460C 306.804,460.988 191.137,460.655 75.5,459C 33.2277,448.564 7.8944,422.064 -0.5,379.5C -0.5,370.833 -0.5,362.167 -0.5,353.5C 1.49616,343.01 4.82949,332.843 9.5,323C 4.63516,313.571 1.30182,303.737 -0.5,293.5C -0.5,284.833 -0.5,276.167 -0.5,267.5C 8.13968,223.527 34.473,197.194 78.5,188.5C 69.2558,136.515 86.2558,95.6815 129.5,66C 161.286,48.4821 194.286,45.8154 228.5,58C 255.768,69.101 275.768,87.9343 288.5,114.5C 330.678,103.342 364.178,115.675 389,151.5C 392.252,157.503 395.086,163.669 397.5,170C 446.861,167.585 482.361,188.419 504,232.5C 507.147,241.105 509.647,249.772 511.5,258.5 Z"/></g>
<g><path style="opacity:1" fill="#5fa0d5" d="M 177.5,67.5 C 224.655,66.4751 257.488,87.4751 276,130.5C 278.602,134.212 282.102,135.378 286.5,134C 311.619,123.598 335.286,126.265 357.5,142C 370.742,153.317 379.242,167.484 383,184.5C 384.167,185.667 385.333,186.833 386.5,188C 405.671,185.644 424.338,187.644 442.5,194C 484.601,215.708 500.768,249.875 491,296.5C 466.64,266.912 435.14,252.912 396.5,254.5C 381.974,217.221 354.641,197.554 314.5,195.5C 305.479,195.447 296.812,197.114 288.5,200.5C 263.673,153.745 224.673,132.579 171.5,137C 140.037,142.472 114.87,157.972 96,183.5C 87.8803,140.586 101.714,106.753 137.5,82C 150.004,74.5679 163.337,69.7346 177.5,67.5 Z"/></g>
<g><path style="opacity:1" fill="#a2d3f6" d="M 173.5,153.5 C 222.963,150.808 257.463,172.141 277,217.5C 279.917,219.393 283.084,219.893 286.5,219C 321.717,206.074 350.55,214.574 373,244.5C 377.837,253.007 381.503,262.007 384,271.5C 384.903,272.701 386.069,273.535 387.5,274C 430,267.339 462.5,282.172 485,318.5C 499.702,351.217 496.702,382.217 476,411.5C 459.822,430.34 439.322,440.84 414.5,443C 304.833,443.667 195.167,443.667 85.5,443C 41.6252,434.625 18.6252,408.125 16.5,363.5C 20.4491,325.05 41.1158,300.883 78.5,291C 82.8333,290.667 87.1667,290.333 91.5,290C 96.19,288.481 98.8566,285.314 99.5,280.5C 85.9803,237.399 96.3136,201.233 130.5,172C 143.719,163.052 158.052,156.886 173.5,153.5 Z"/></g>
<g><path style="opacity:1" fill="#5fa0d4" d="M 76.5,205.5 C 79.1873,205.336 81.854,205.503 84.5,206C 77.5093,221.781 75.0093,238.281 77,255.5C 77.9011,261.835 78.7344,268.168 79.5,274.5C 55.796,277.436 36.296,288.103 21,306.5C 9.95865,267.109 21.4587,236.276 55.5,214C 62.331,210.453 69.331,207.619 76.5,205.5 Z"/></g>
</svg>
