<?xml version="1.0" encoding="UTF-8"?>
<!DOCTYPE svg PUBLIC "-//W3C//DTD SVG 1.1//EN" "http://www.w3.org/Graphics/SVG/1.1/DTD/svg11.dtd">
<svg xmlns="http://www.w3.org/2000/svg" version="1.1" width="512px" height="512px" style="shape-rendering:geometricPrecision; text-rendering:geometricPrecision; image-rendering:optimizeQuality; fill-rule:evenodd; clip-rule:evenodd" xmlns:xlink="http://www.w3.org/1999/xlink">
<g><path style="opacity:0.964" fill="#000101" d="M 250.5,-0.5 C 253.5,-0.5 256.5,-0.5 259.5,-0.5C 260.688,0.363622 261.855,1.36362 263,2.5C 302.579,66.8255 338.912,133.159 372,201.5C 390.091,238.772 404.424,277.439 415,317.5C 423.739,380.29 404.572,432.79 357.5,475C 332.895,495.033 304.895,507.2 273.5,511.5C 261.5,511.5 249.5,511.5 237.5,511.5C 161.85,497.689 114.683,453.355 96,378.5C 90.1344,349.621 92.1344,321.288 102,293.5C 119.541,242.079 141.208,192.413 167,144.5C 193.063,94.9877 220.896,46.6544 250.5,-0.5 Z"/></g>
<g><path style="opacity:1" fill="#5fa1d6" d="M 254.5,25.5 C 255.496,25.4142 256.329,25.7476 257,26.5C 300.742,98.9753 340.075,173.975 375,251.5C 385.607,275.654 393.607,300.654 399,326.5C 403.992,384.992 383.492,432.159 337.5,468C 283.352,502.941 229.019,503.274 174.5,469C 128.903,434.292 107.737,388.125 111,330.5C 112.984,317.913 115.984,305.58 120,293.5C 128.021,270.436 137.021,247.769 147,225.5C 179.509,156.8 215.343,90.1333 254.5,25.5 Z"/></g>
<g><path style="opacity:1" fill="#020303" d="M 207.5,289.5 C 224.913,290.069 235.08,299.069 238,316.5C 239.401,329.862 235.901,341.696 227.5,352C 214.985,360.527 203.819,359.027 194,347.5C 185.058,330.932 185.391,314.598 195,298.5C 198.79,294.862 202.957,291.862 207.5,289.5 Z"/></g>
<g><path style="opacity:1" fill="#020304" d="M 295.5,289.5 C 305.62,290.408 308.453,295.408 304,304.5C 276.421,342.657 249.088,380.991 222,419.5C 217.615,426.127 212.282,427.127 206,422.5C 203.914,418.333 204.247,414.333 207,410.5C 233.667,373.167 260.333,335.833 287,298.5C 289.362,294.973 292.196,291.973 295.5,289.5 Z"/></g>
<g><path style="opacity:1" fill="#5e9dd0" d="M 210.5,306.5 C 213.785,306.269 216.285,307.603 218,310.5C 222.596,319.151 222.596,327.817 218,336.5C 214.982,341.265 211.649,341.598 208,337.5C 202.661,326.567 203.494,316.234 210.5,306.5 Z"/></g>
<g><path style="opacity:1" fill="#020203" d="M 291.5,358.5 C 309.115,357.594 319.615,365.928 323,383.5C 325.214,398.503 321.047,411.336 310.5,422C 297.059,428.928 286.226,426.095 278,413.5C 270.111,397.737 270.778,382.404 280,367.5C 283.161,363.491 286.994,360.491 291.5,358.5 Z"/></g>
<g><path style="opacity:1" fill="#5e9dd0" d="M 296.5,374.5 C 301.454,375.957 304.62,379.291 306,384.5C 307.991,393.336 306.158,401.17 300.5,408C 296.316,409.165 293.483,407.665 292,403.5C 287.468,392.752 288.968,383.086 296.5,374.5 Z"/></g>
</svg>
