<?xml version="1.0" encoding="UTF-8"?>
<!DOCTYPE svg PUBLIC "-//W3C//DTD SVG 1.1//EN" "http://www.w3.org/Graphics/SVG/1.1/DTD/svg11.dtd">
<svg xmlns="http://www.w3.org/2000/svg" version="1.1" width="512px" height="512px" style="shape-rendering:geometricPrecision; text-rendering:geometricPrecision; image-rendering:optimizeQuality; fill-rule:evenodd; clip-rule:evenodd" xmlns:xlink="http://www.w3.org/1999/xlink">
<g><path style="opacity:0.974" fill="#020303" d="M 216.5,-0.5 C 222.5,-0.5 228.5,-0.5 234.5,-0.5C 252.143,4.30999 263.309,15.6433 268,33.5C 268.333,151.5 268.667,269.5 269,387.5C 293.341,410.866 300.008,438.533 289,470.5C 278.432,492.58 261.265,506.246 237.5,511.5C 229.833,511.5 222.167,511.5 214.5,511.5C 178.868,502.686 159.535,479.852 156.5,443C 157.308,420.889 165.808,402.389 182,387.5C 182.333,270.5 182.667,153.5 183,36.5C 186.347,16.9908 197.513,4.65749 216.5,-0.5 Z"/></g>
<g><path style="opacity:1" fill="#a1d1f4" d="M 219.5,16.5 C 235.276,14.9661 245.776,21.6328 251,36.5C 251.167,156.835 251.667,277.168 252.5,397.5C 277.696,417.291 283.196,441.625 269,470.5C 252.36,492.706 230.86,499.206 204.5,490C 179.017,475.572 169.85,454.072 177,425.5C 181.572,413.345 189.238,403.679 200,396.5C 200.333,275.833 200.667,155.167 201,34.5C 204.416,25.5829 210.583,19.5829 219.5,16.5 Z"/></g>
<g><path style="opacity:1" fill="#0d0909" d="M 222.5,67.5 C 227.55,67.2742 231.383,69.2742 234,73.5C 234.167,185.835 234.667,298.168 235.5,410.5C 251.249,415.324 259.249,425.991 259.5,442.5C 257.881,463.452 246.548,474.786 225.5,476.5C 208.208,475.037 197.042,466.037 192,449.5C 189.569,429.672 197.735,416.672 216.5,410.5C 216.333,298.833 216.5,187.166 217,75.5C 217.625,71.8907 219.458,69.224 222.5,67.5 Z"/></g>
<g><path style="opacity:1" fill="#080a0a" d="M 292.5,75.5 C 310.503,75.3334 328.503,75.5001 346.5,76C 353.256,78.2616 355.423,82.7616 353,89.5C 351.833,90.6667 350.667,91.8333 349.5,93C 329.5,93.6667 309.5,93.6667 289.5,93C 282.641,85.7583 283.641,79.9249 292.5,75.5 Z"/></g>
<g><path style="opacity:1" fill="#07090a" d="M 293.5,109.5 C 306.561,109.078 319.561,109.578 332.5,111C 339.167,116.333 339.167,121.667 332.5,127C 318.167,127.667 303.833,127.667 289.5,127C 285.266,123.554 284.099,119.388 286,114.5C 287.913,111.72 290.413,110.053 293.5,109.5 Z"/></g>
<g><path style="opacity:1" fill="#070909" d="M 289.5,144.5 C 309.503,144.333 329.503,144.5 349.5,145C 356.505,152.012 355.505,157.679 346.5,162C 328.5,162.667 310.5,162.667 292.5,162C 283.343,157.531 282.343,151.698 289.5,144.5 Z"/></g>
<g><path style="opacity:1" fill="#090a0b" d="M 290.5,178.5 C 304.171,178.333 317.837,178.5 331.5,179C 337.316,182.762 338.482,187.595 335,193.5C 333.352,194.717 331.519,195.55 329.5,196C 317.167,196.667 304.833,196.667 292.5,196C 285.744,193.738 283.577,189.238 286,182.5C 287.397,180.93 288.897,179.596 290.5,178.5 Z"/></g>
<g><path style="opacity:1" fill="#090b0b" d="M 290.5,212.5 C 309.836,212.333 329.17,212.5 348.5,213C 354.302,216.709 355.469,221.542 352,227.5C 350.581,228.46 349.081,229.293 347.5,230C 328.833,230.667 310.167,230.667 291.5,230C 282.555,224.625 282.222,218.792 290.5,212.5 Z"/></g>
<g><path style="opacity:1" fill="#0a0c0c" d="M 290.5,246.5 C 304.171,246.333 317.837,246.5 331.5,247C 339.5,252.667 339.5,258.333 331.5,264C 317.833,264.667 304.167,264.667 290.5,264C 282.649,258.19 282.649,252.356 290.5,246.5 Z"/></g>
<g><path style="opacity:1" fill="#090b0b" d="M 291.5,280.5 C 310.17,280.333 328.836,280.5 347.5,281C 353.443,283.83 355.276,288.33 353,294.5C 351.786,296.049 350.286,297.215 348.5,298C 329.167,298.667 309.833,298.667 290.5,298C 284.698,294.291 283.531,289.458 287,283.5C 288.652,282.601 290.152,281.601 291.5,280.5 Z"/></g>
<g><path style="opacity:1" fill="#090a0b" d="M 292.5,314.5 C 304.838,314.333 317.171,314.5 329.5,315C 336.207,317.339 338.373,321.839 336,328.5C 334.786,330.049 333.286,331.215 331.5,332C 317.833,332.667 304.167,332.667 290.5,332C 284.698,328.291 283.531,323.458 287,317.5C 288.876,316.391 290.709,315.391 292.5,314.5 Z"/></g>
<g><path style="opacity:1" fill="#070909" d="M 292.5,348.5 C 310.503,348.333 328.503,348.5 346.5,349C 355.505,353.321 356.505,358.988 349.5,366C 329.5,366.667 309.5,366.667 289.5,366C 282.602,358.852 283.602,353.019 292.5,348.5 Z"/></g>
<g><path style="opacity:1" fill="#fa5940" d="M 220.5,425.5 C 239.26,425.694 245.76,434.694 240,452.5C 230.968,462.715 221.635,463.049 212,453.5C 205.365,441.138 208.199,431.805 220.5,425.5 Z"/></g>
</svg>
