<?xml version="1.0" encoding="UTF-8"?>
<!DOCTYPE svg PUBLIC "-//W3C//DTD SVG 1.1//EN" "http://www.w3.org/Graphics/SVG/1.1/DTD/svg11.dtd">
<svg xmlns="http://www.w3.org/2000/svg" version="1.1" width="512px" height="512px" style="shape-rendering:geometricPrecision; text-rendering:geometricPrecision; image-rendering:optimizeQuality; fill-rule:evenodd; clip-rule:evenodd" xmlns:xlink="http://www.w3.org/1999/xlink">
<g><path style="opacity:0.965" fill="#010101" d="M 511.5,216.5 C 511.5,225.833 511.5,235.167 511.5,244.5C 501.593,294.24 471.593,323.74 421.5,333C 413.167,333.667 404.833,333.667 396.5,333C 393.71,331.254 392.043,328.754 391.5,325.5C 391.786,321.889 393.452,319.056 396.5,317C 433.948,319.027 462.781,304.527 483,273.5C 503.938,229.512 495.771,192.012 458.5,161C 438.246,147.748 416.079,142.915 392,146.5C 389.37,146.536 386.87,146.036 384.5,145C 377.441,114.942 359.108,95.6088 329.5,87C 314.581,83.8459 300.247,85.5126 286.5,92C 281.421,93.5676 277.587,92.0676 275,87.5C 258.092,48.8571 228.425,28.5237 186,26.5C 137.784,30.38 107.451,55.7134 95,102.5C 92.3855,119.61 93.5522,136.443 98.5,153C 98.9017,157.2 97.235,160.2 93.5,162C 55.1879,164.656 30.0212,184.156 18,220.5C 11.0088,267.043 29.5088,298.21 73.5,314C 81.0682,315.714 88.7349,316.714 96.5,317C 99.6385,318.971 101.305,321.804 101.5,325.5C 101.673,329.17 100.007,331.67 96.5,333C 54.1391,332.964 23.9725,313.797 6,275.5C 3.07375,267.908 0.907084,260.241 -0.5,252.5C -0.5,243.5 -0.5,234.5 -0.5,225.5C 6.91205,187.577 28.9121,162.077 65.5,149C 69.7536,147.686 74.087,146.853 78.5,146.5C 69.1229,98.4599 83.4563,59.2932 121.5,29C 154.895,6.71552 190.562,2.38219 228.5,16C 255.166,27.8344 275.166,46.6678 288.5,72.5C 330.6,61.2936 364.1,73.6269 389,109.5C 392.252,115.503 395.086,121.669 397.5,128C 446.899,125.602 482.399,146.435 504,190.5C 507.147,199.105 509.647,207.772 511.5,216.5 Z"/></g>
<g><path style="opacity:0.999" fill="#cfd9d8" d="M 391.5,325.5 C 386.167,325.5 380.833,325.5 375.5,325.5C 374.673,288.905 374.173,252.238 374,215.5C 368.649,201.568 358.482,195.401 343.5,197C 333.667,200.167 327.167,206.667 324,216.5C 323.5,252.832 323.333,289.165 323.5,325.5C 318.167,325.5 312.833,325.5 307.5,325.5C 306.668,297.67 306.168,269.67 306,241.5C 299.786,225.476 288.286,219.643 271.5,224C 263.507,227.326 258.341,233.159 256,241.5C 255.832,269.67 255.332,297.67 254.5,325.5C 249.167,325.5 243.833,325.5 238.5,325.5C 238.667,289.165 238.5,252.832 238,216.5C 232.614,201.788 222.114,195.288 206.5,197C 197.427,199.739 191.26,205.573 188,214.5C 187.827,251.571 187.327,288.571 186.5,325.5C 181.167,325.5 175.833,325.5 170.5,325.5C 169.675,295.905 169.175,266.238 169,236.5C 163.135,221.667 152.302,215.834 136.5,219C 127.573,222.26 121.739,228.427 119,237.5C 118.5,266.831 118.333,296.165 118.5,325.5C 112.833,325.5 107.167,325.5 101.5,325.5C 101.305,321.804 99.6385,318.971 96.5,317C 88.7349,316.714 81.0682,315.714 73.5,314C 29.5088,298.21 11.0088,267.043 18,220.5C 30.0212,184.156 55.1879,164.656 93.5,162C 97.235,160.2 98.9017,157.2 98.5,153C 93.5522,136.443 92.3855,119.61 95,102.5C 107.451,55.7134 137.784,30.38 186,26.5C 228.425,28.5237 258.092,48.8571 275,87.5C 277.587,92.0676 281.421,93.5676 286.5,92C 300.247,85.5126 314.581,83.8459 329.5,87C 359.108,95.6088 377.441,114.942 384.5,145C 386.87,146.036 389.37,146.536 392,146.5C 416.079,142.915 438.246,147.748 458.5,161C 495.771,192.012 503.938,229.512 483,273.5C 462.781,304.527 433.948,319.027 396.5,317C 393.452,319.056 391.786,321.889 391.5,325.5 Z"/></g>
<g><path style="opacity:0.984" fill="#030304" d="M 238.5,325.5 C 238.667,378.501 238.5,431.501 238,484.5C 232.009,500.748 220.509,506.914 203.5,503C 194.735,499.237 189.235,492.737 187,483.5C 186.5,430.834 186.333,378.168 186.5,325.5C 187.327,288.571 187.827,251.571 188,214.5C 191.26,205.573 197.427,199.739 206.5,197C 222.114,195.288 232.614,201.788 238,216.5C 238.5,252.832 238.667,289.165 238.5,325.5 Z"/></g>
<g><path style="opacity:0.984" fill="#010203" d="M 375.5,325.5 C 375.667,377.834 375.5,430.168 375,482.5C 371.833,496.333 363.167,503.667 349,504.5C 336.599,503.471 328.266,497.138 324,485.5C 323.5,432.168 323.333,378.834 323.5,325.5C 323.333,289.165 323.5,252.832 324,216.5C 327.167,206.667 333.667,200.167 343.5,197C 358.482,195.401 368.649,201.568 374,215.5C 374.173,252.238 374.673,288.905 375.5,325.5 Z"/></g>
<g><path style="opacity:1" fill="#5d9ed2" d="M 209.5,213.5 C 215.031,213.177 218.864,215.51 221,220.5C 221.667,306.833 221.667,393.167 221,479.5C 219.154,485.995 214.988,488.162 208.5,486C 207.333,484.833 206.167,483.667 205,482.5C 204.333,394.5 204.333,306.5 205,218.5C 206.193,216.503 207.693,214.836 209.5,213.5 Z"/></g>
<g><path style="opacity:1" fill="#5ea0d4" d="M 346.5,213.5 C 351.194,212.7 354.694,214.367 357,218.5C 357.667,306.167 357.667,393.833 357,481.5C 353.726,486.738 349.226,487.904 343.5,485C 342.283,483.352 341.45,481.519 341,479.5C 340.333,392.833 340.333,306.167 341,219.5C 342.36,216.977 344.193,214.977 346.5,213.5 Z"/></g>
<g><path style="opacity:0.983" fill="#010203" d="M 170.5,325.5 C 170.667,367.835 170.5,410.168 170,452.5C 165.901,468.971 155.401,476.137 138.5,474C 128.433,471.6 121.933,465.434 119,455.5C 118.5,412.168 118.333,368.835 118.5,325.5C 118.333,296.165 118.5,266.831 119,237.5C 121.739,228.427 127.573,222.26 136.5,219C 152.302,215.834 163.135,221.667 169,236.5C 169.175,266.238 169.675,295.905 170.5,325.5 Z"/></g>
<g><path style="opacity:0.97" fill="#000001" d="M 307.5,325.5 C 307.969,370.2 307.469,414.867 306,459.5C 302.3,471.861 293.966,478.194 281,478.5C 266.424,477.595 257.758,469.928 255,455.5C 254.5,412.168 254.333,368.835 254.5,325.5C 255.332,297.67 255.832,269.67 256,241.5C 258.341,233.159 263.507,227.326 271.5,224C 288.286,219.643 299.786,225.476 306,241.5C 306.168,269.67 306.668,297.67 307.5,325.5 Z"/></g>
<g><path style="opacity:1" fill="#5e9fd4" d="M 140.5,235.5 C 145.223,234.553 149.056,235.886 152,239.5C 152.667,310.5 152.667,381.5 152,452.5C 148.229,456.788 143.729,457.621 138.5,455C 137.283,453.352 136.45,451.519 136,449.5C 135.333,379.833 135.333,310.167 136,240.5C 137.059,238.341 138.559,236.674 140.5,235.5 Z"/></g>
<g><path style="opacity:1" fill="#5fa1d5" d="M 277.5,239.5 C 282.589,238.428 286.422,240.095 289,244.5C 289.667,314.833 289.667,385.167 289,455.5C 284.045,462.829 278.712,463.162 273,456.5C 272.333,385.833 272.333,315.167 273,244.5C 274.059,242.341 275.559,240.674 277.5,239.5 Z"/></g>
</svg>
