<svg width="512" height="512" viewBox="0 0 512 512" fill="none" xmlns="http://www.w3.org/2000/svg">
<g clip-path="url(#clip0_551_165)">
<path opacity="0.966" fill-rule="evenodd" clip-rule="evenodd" d="M233.5 -0.5C248.167 -0.5 262.833 -0.5 277.5 -0.5C377.766 12.0408 449.266 64.0408 492 155.5C502.296 180.684 508.796 206.684 511.5 233.5C511.5 248.167 511.5 262.833 511.5 277.5C498.959 377.766 446.959 449.266 355.5 492C330.316 502.296 304.316 508.796 277.5 511.5C262.833 511.5 248.167 511.5 233.5 511.5C133.234 498.959 61.734 446.959 19 355.5C8.70393 330.316 2.20393 304.316 -0.5 277.5C-0.5 262.833 -0.5 248.167 -0.5 233.5C12.0408 133.234 64.0408 61.734 155.5 19C180.684 8.70393 206.684 2.20393 233.5 -0.5Z" fill="#000102"/>
<path fill-rule="evenodd" clip-rule="evenodd" d="M231.5 17.4998C334.453 12.5482 412.286 53.8816 465 141.5C494.831 198.521 501.498 258.188 485 320.5C461.12 396.381 412.287 449.214 338.5 479C250.161 508.484 170.161 493.817 98.5 435C29.4819 369.935 4.6486 290.768 24 197.5C45.582 121.504 92.4153 67.3371 164.5 34.9998C186.168 26.1728 208.501 20.3395 231.5 17.4998Z" fill="#A3D4F7"/>
<path fill-rule="evenodd" clip-rule="evenodd" d="M232.5 53.4998C303.429 48.5161 362.596 72.1828 410 124.5C460.35 188.273 471.017 258.273 442 334.5C408.905 404.83 353.739 445.663 276.5 457C206.278 462.122 147.778 438.622 101 386.5C56.6017 330.592 43.2683 267.926 61.0001 198.5C89.3318 115.997 146.498 67.6639 232.5 53.4998Z" fill="#020303"/>
<path fill-rule="evenodd" clip-rule="evenodd" d="M240.5 70.5001C318.012 68.3275 376.846 99.9942 417 165.5C448.094 225.464 448.094 285.464 417 345.5C376.871 411.158 318.038 442.658 240.5 440C168.878 431.011 117.378 394.177 86 329.5C58.9858 260.262 67.9858 196.262 113 137.5C146.783 98.6907 189.283 76.3574 240.5 70.5001Z" fill="#FEFEFE"/>
<path fill-rule="evenodd" clip-rule="evenodd" d="M239.5 114.5C281.049 111.629 317.716 123.462 349.5 150C355.676 155.031 356.009 160.364 350.5 166C347.923 167.25 345.257 167.584 342.5 167C303.013 132.07 258.347 123.403 208.5 141C191.586 148.618 176.586 158.951 163.5 172C152.947 173.074 149.447 168.574 153 158.5C177.029 134.402 205.863 119.735 239.5 114.5Z" fill="#050505"/>
<path fill-rule="evenodd" clip-rule="evenodd" d="M313.5 229.5C322.711 228.542 326.545 232.542 325 241.5C312.301 262.035 299.801 282.702 287.5 303.5C309.668 324.504 314.168 348.837 301 376.5C287.17 398.163 267.337 407.663 241.5 405C208.516 396.221 192.683 374.721 194 340.5C200.797 310.202 219.63 293.535 250.5 290.5C258 291.103 265.334 292.27 272.5 294C285.581 271.976 299.247 250.476 313.5 229.5Z" fill="#040403"/>
<path fill-rule="evenodd" clip-rule="evenodd" d="M242.5 308.5C266.386 306.561 282.219 316.894 290 339.5C291.48 372.687 275.646 388.52 242.5 387C219.397 379.656 209.231 363.823 212 339.5C217.026 323.975 227.193 313.642 242.5 308.5Z" fill="#FCE666"/>
</g>
<defs>
<clipPath id="clip0_551_165">
<rect width="512" height="512" fill="white"/>
</clipPath>
</defs>
</svg>
