<svg width="512" height="512" viewBox="0 0 512 512" fill="none" xmlns="http://www.w3.org/2000/svg">
<g clip-path="url(#clip0_552_182)">
<path opacity="0.911" fill-rule="evenodd" clip-rule="evenodd" d="M251.5 -0.5C254.167 -0.5 256.833 -0.5 259.5 -0.5C260.931 1.18867 261.764 3.18867 262 5.5C262.667 24.1667 262.667 42.8333 262 61.5C261.573 65.4284 259.406 67.4284 255.5 67.5C253.088 67.5938 251.255 66.5938 250 64.5C249.333 43.5 249.333 22.5 250 1.5C250.717 0.955796 251.217 0.28913 251.5 -0.5Z" fill="black"/>
<path opacity="0.893" fill-rule="evenodd" clip-rule="evenodd" d="M128.5 32.4999C132.273 31.8223 135.106 33.1557 137 36.4999C145.414 51.6634 154.081 66.6634 163 81.4999C166.748 89.7217 164.248 93.5551 155.5 92.9999C154.584 92.6257 153.75 92.1257 153 91.4999C144.586 76.3364 135.919 61.3364 127 46.4999C123.181 41.0991 123.681 36.4324 128.5 32.4999Z" fill="black"/>
<path opacity="0.893" fill-rule="evenodd" clip-rule="evenodd" d="M377.5 32.4998C384.88 32.0428 387.713 35.3761 386 42.4998C376.92 58.9959 367.586 75.3293 358 91.4998C349.58 95.4152 345.913 92.7486 347 83.4998C356.675 66.141 366.841 49.141 377.5 32.4998Z" fill="black"/>
<path opacity="0.89" fill-rule="evenodd" clip-rule="evenodd" d="M195.5 34.5001C201.048 33.5435 204.215 35.8769 205 41.5001C207.403 49.9468 209.57 58.4468 211.5 67.0001C210.915 73.6251 207.581 75.6251 201.5 73.0001C199.683 71.2003 198.516 69.0337 198 66.5001C195.599 58.0615 193.432 49.5615 191.5 41.0001C191.722 38.038 193.056 35.8713 195.5 34.5001Z" fill="black"/>
<path opacity="0.891" fill-rule="evenodd" clip-rule="evenodd" d="M309.5 34.5C315.093 33.4506 318.426 35.6173 319.5 41C317.39 50.6056 314.89 60.1056 312 69.5C309.391 74.5683 305.724 75.5683 301 72.5C300.077 70.9656 299.577 69.299 299.5 67.5C301.654 56.0465 304.987 45.0465 309.5 34.5Z" fill="black"/>
<path opacity="0.949" fill-rule="evenodd" clip-rule="evenodd" d="M241.5 90.4999C309.227 88.1091 361.394 115.109 398 171.5C427.613 226.668 427.947 282.001 399 337.5C369.22 386.327 325.72 413.827 268.5 420C200.153 422.583 147.987 395.083 112 337.5C83.0534 281.998 83.3868 226.665 113 171.5C143.028 124.327 185.861 97.327 241.5 90.4999Z" fill="#020100"/>
<path opacity="0.882" fill-rule="evenodd" clip-rule="evenodd" d="M97.5 91.5001C99.3084 91.4915 100.975 91.9915 102.5 93.0001C109.333 99.8334 116.167 106.667 123 113.5C125.905 119.352 124.239 123.019 118 124.5C115.968 124.142 114.134 123.308 112.5 122C106 115.5 99.5 109 93 102.5C90.8989 97.2943 92.3989 93.6277 97.5 91.5001Z" fill="black"/>
<path opacity="0.882" fill-rule="evenodd" clip-rule="evenodd" d="M410.5 91.5C418.005 91.9035 420.505 95.5702 418 102.5C411.5 109 405 115.5 398.5 122C392.554 126.152 388.554 124.818 386.5 118C386.625 116.373 387.125 114.873 388 113.5C395.395 105.937 402.895 98.6035 410.5 91.5Z" fill="black"/>
<path fill-rule="evenodd" clip-rule="evenodd" d="M243.5 102.5C320.464 101.873 372.964 137.207 401 208.5C416.271 262.222 406.605 310.889 372 354.5C326.922 402.731 272.422 418.231 208.5 401C145.642 377.467 110.476 332.301 103 265.5C101.74 198.827 130.24 149.661 188.5 118C206.119 109.849 224.452 104.682 243.5 102.5Z" fill="#FCE666"/>
<path opacity="0.894" fill-rule="evenodd" clip-rule="evenodd" d="M35.5001 124.5C39.463 124.089 43.1296 124.922 46.5001 127C61.3366 135.919 76.3366 144.586 91.5001 153C95.5817 160.903 93.2483 164.57 84.5001 164C68.2441 155.401 52.2441 146.401 36.5001 137C31.5115 133.219 31.1782 129.052 35.5001 124.5Z" fill="black"/>
<path opacity="0.896" fill-rule="evenodd" clip-rule="evenodd" d="M468.5 124.5C475.777 123.279 478.944 126.279 478 133.5C461.411 144.548 444.244 154.715 426.5 164C417.752 164.57 415.418 160.903 419.5 153C436.224 143.978 452.557 134.478 468.5 124.5Z" fill="black"/>
<path opacity="0.888" fill-rule="evenodd" clip-rule="evenodd" d="M37.5 191.5C48.6586 193.206 59.6586 195.706 70.5 199C76.4546 205.014 75.4546 209.181 67.5 211.5C56.7647 209.192 46.2647 206.192 36 202.5C33.8417 198.461 34.3417 194.794 37.5 191.5Z" fill="black"/>
<path opacity="0.888" fill-rule="evenodd" clip-rule="evenodd" d="M467.5 191.5C475.812 191.619 478.146 195.453 474.5 203C463.404 206.941 452.071 209.608 440.5 211C435.335 207.469 435.168 203.635 440 199.5C449.309 196.892 458.475 194.226 467.5 191.5Z" fill="black"/>
<path fill-rule="evenodd" clip-rule="evenodd" d="M148.5 198.5C151.505 198.253 154.005 199.253 156 201.5C156.333 223.5 156.667 245.5 157 267.5C156.798 290.297 168.131 301.297 191 300.5C211.994 301.823 223.327 292.157 225 271.5C225.333 248.167 225.667 224.833 226 201.5C229.249 197.633 232.582 197.633 236 201.5C236.906 228.524 236.572 255.524 235 282.5C231.549 297.952 222.049 307.452 206.5 311C189.377 314.715 173.377 312.048 158.5 303C150.491 295.665 146.325 286.498 146 275.5C145.333 250.833 145.333 226.167 146 201.5C147.045 200.627 147.878 199.627 148.5 198.5Z" fill="#020100"/>
<path fill-rule="evenodd" clip-rule="evenodd" d="M264.5 198.5C268.994 198.163 271.828 200.163 273 204.5C284 235.5 295 266.5 306 297.5C308.411 298.139 310.911 298.473 313.5 298.5C316.287 298.426 318.787 297.76 321 296.5C332.136 264.757 343.47 233.091 355 201.5C358.249 197.633 361.582 197.633 365 201.5C364.935 207.715 363.602 213.715 361 219.5C351.055 246.392 341.388 273.392 332 300.5C330.973 303.754 329.473 306.754 327.5 309.5C318.548 310.639 309.548 310.805 300.5 310C299.584 309.626 298.75 309.126 298 308.5C284.638 273.41 272.305 238.076 261 202.5C262.376 201.295 263.542 199.962 264.5 198.5Z" fill="#050200"/>
<path opacity="0.974" fill-rule="evenodd" clip-rule="evenodd" d="M-0.5 259.5C-0.5 256.833 -0.5 254.167 -0.5 251.5C0.28913 251.217 0.955796 250.717 1.5 250C22.5 249.333 43.5 249.333 64.5 250C67.5703 252.569 68.237 255.736 66.5 259.5C65.9747 260.192 65.3081 260.692 64.5 261C43.5 261.667 22.5 261.667 1.5 261C0.955796 260.283 0.28913 259.783 -0.5 259.5Z" fill="black"/>
<path opacity="0.974" fill-rule="evenodd" clip-rule="evenodd" d="M511.5 251.5C511.5 254.167 511.5 256.833 511.5 259.5C510.711 259.783 510.044 260.283 509.5 261C488.5 261.667 467.5 261.667 446.5 261C443.43 258.431 442.763 255.264 444.5 251.5C445.025 250.808 445.692 250.308 446.5 250C467.5 249.333 488.5 249.333 509.5 250C510.044 250.717 510.711 251.217 511.5 251.5Z" fill="black"/>
<path opacity="0.888" fill-rule="evenodd" clip-rule="evenodd" d="M63.5 299.5C72.9124 298.231 75.9124 301.897 72.5 310.5C62.1715 314.041 51.6715 317.041 41 319.5C34.4405 317.748 32.9405 313.915 36.5 308C45.633 305.232 54.633 302.398 63.5 299.5Z" fill="black"/>
<path opacity="0.89" fill-rule="evenodd" clip-rule="evenodd" d="M439.5 299.5C450.718 300.887 461.718 303.387 472.5 307C476.883 309.918 477.55 313.585 474.5 318C473.127 318.875 471.627 319.375 470 319.5C459.329 317.041 448.829 314.041 438.5 310.5C436.009 306.618 436.342 302.951 439.5 299.5Z" fill="black"/>
<path opacity="0.893" fill-rule="evenodd" clip-rule="evenodd" d="M83.5 346.5C92.7446 345.899 95.4113 349.732 91.5 358C75.3295 367.586 58.9961 376.92 42.5 386C35.2199 387.719 32.0532 384.885 33 377.5C34.1667 376.333 35.3333 375.167 36.5 374C52.5582 365.311 68.2248 356.145 83.5 346.5Z" fill="black"/>
<path opacity="0.892" fill-rule="evenodd" clip-rule="evenodd" d="M420.5 346.5C423.649 346.211 426.649 346.711 429.5 348C444.337 356.919 459.337 365.586 474.5 374C479.423 377.615 479.756 381.615 475.5 386C473.167 386.667 470.833 386.667 468.5 386C452.004 376.92 435.671 367.586 419.5 358C416.616 353.826 416.949 349.993 420.5 346.5Z" fill="black"/>
<path opacity="0.887" fill-rule="evenodd" clip-rule="evenodd" d="M115.5 386.5C123.47 386.44 125.97 390.107 123 397.5C116.5 404 110 410.5 103.5 417C97.9757 420.492 93.9757 419.159 91.5 413C92.2266 411.601 92.7266 410.101 93 408.5C100.395 400.937 107.895 393.603 115.5 386.5Z" fill="black"/>
<path opacity="0.889" fill-rule="evenodd" clip-rule="evenodd" d="M390.5 386.5C392.989 386.298 395.323 386.798 397.5 388C404.333 394.833 411.167 401.667 418 408.5C420.215 413.837 418.548 417.504 413 419.5C410.635 418.711 408.468 417.544 406.5 416C400.333 409.833 394.167 403.667 388 397.5C385.6 392.99 386.433 389.323 390.5 386.5Z" fill="black"/>
<path opacity="0.894" fill-rule="evenodd" clip-rule="evenodd" d="M155.5 417.5C162.825 416.992 165.658 420.326 164 427.5C154.747 443.004 145.747 458.67 137 474.5C133.294 479.268 129.294 479.601 125 475.5C124.333 473.167 124.333 470.833 125 468.5C134.704 451.07 144.871 434.07 155.5 417.5Z" fill="black"/>
<path opacity="0.895" fill-rule="evenodd" clip-rule="evenodd" d="M349.5 417.5C355.308 416.652 359.142 418.985 361 424.5C369.333 439.167 377.667 453.833 386 468.5C387.482 476.689 384.315 479.522 376.5 477C366.289 460.748 356.456 444.248 347 427.5C345.861 423.579 346.695 420.246 349.5 417.5Z" fill="black"/>
<path opacity="0.884" fill-rule="evenodd" clip-rule="evenodd" d="M202.5 436.5C208.08 435.767 211.08 438.101 211.5 443.5C209.403 454.286 206.403 464.786 202.5 475C196.648 477.905 192.981 476.239 191.5 470C193.926 459.388 196.76 448.888 200 438.5C200.995 437.934 201.828 437.267 202.5 436.5Z" fill="black"/>
<path opacity="0.886" fill-rule="evenodd" clip-rule="evenodd" d="M303.5 436.5C309.52 435.762 312.687 438.429 313 444.5C315.401 452.939 317.568 461.439 319.5 470C318.019 476.239 314.352 477.905 308.5 475C303.694 463.612 300.861 451.779 300 439.5C301.145 438.364 302.312 437.364 303.5 436.5Z" fill="black"/>
<path opacity="0.975" fill-rule="evenodd" clip-rule="evenodd" d="M258.5 511.5C256.5 511.5 254.5 511.5 252.5 511.5C251.828 510.733 250.995 510.066 250 509.5C249.333 488.5 249.333 467.5 250 446.5C252.569 443.43 255.736 442.763 259.5 444.5C260.192 445.025 260.692 445.692 261 446.5C261.667 467.5 261.667 488.5 261 509.5C260.005 510.066 259.172 510.733 258.5 511.5Z" fill="black"/>
</g>
<defs>
<clipPath id="clip0_552_182">
<rect width="512" height="512" fill="white"/>
</clipPath>
</defs>
</svg>
