<?xml version="1.0" encoding="UTF-8"?>
<!DOCTYPE svg PUBLIC "-//W3C//DTD SVG 1.1//EN" "http://www.w3.org/Graphics/SVG/1.1/DTD/svg11.dtd">
<svg xmlns="http://www.w3.org/2000/svg" version="1.1" width="512px" height="512px" style="shape-rendering:geometricPrecision; text-rendering:geometricPrecision; image-rendering:optimizeQuality; fill-rule:evenodd; clip-rule:evenodd" xmlns:xlink="http://www.w3.org/1999/xlink">
<g><path style="opacity:1" fill="#05070a" d="M 511.5,157.5 C 511.5,160.167 511.5,162.833 511.5,165.5C 510.167,167.5 508.5,169.167 506.5,170.5C 494.806,170.349 483.139,170.849 471.5,172C 456.011,175.039 440.678,178.706 425.5,183C 383.752,191.14 342.752,188.473 302.5,175C 276.319,170.273 249.986,169.273 223.5,172C 204.628,176.801 185.628,181.134 166.5,185C 142.835,188.333 119.168,188.333 95.5,185C 76.5795,180.377 57.5795,176.043 38.5,172C 27.1886,170.968 15.8553,170.468 4.5,170.5C 2.5,169.167 0.833333,167.5 -0.5,165.5C -0.5,162.833 -0.5,160.167 -0.5,157.5C 0.854084,155.304 2.85408,153.804 5.5,153C 21.9799,152.414 38.3132,153.748 54.5,157C 70.3618,161.299 86.3618,164.966 102.5,168C 122.167,170 141.833,170 161.5,168C 179.208,164.209 196.874,160.209 214.5,156C 237.075,152.277 259.742,151.611 282.5,154C 304.998,157.875 327.332,162.541 349.5,168C 369.167,170 388.833,170 408.5,168C 424.638,164.966 440.638,161.299 456.5,157C 472.687,153.748 489.02,152.414 505.5,153C 508.146,153.804 510.146,155.304 511.5,157.5 Z"/></g>
<g><path style="opacity:0.979" fill="#b5f7fc" d="M 4.5,170.5 C 15.8553,170.468 27.1886,170.968 38.5,172C 57.5795,176.043 76.5795,180.377 95.5,185C 119.168,188.333 142.835,188.333 166.5,185C 185.628,181.134 204.628,176.801 223.5,172C 249.986,169.273 276.319,170.273 302.5,175C 342.752,188.473 383.752,191.14 425.5,183C 440.678,178.706 456.011,175.039 471.5,172C 483.139,170.849 494.806,170.349 506.5,170.5C 508.48,171.484 510.147,172.817 511.5,174.5C 511.5,177.167 511.5,179.833 511.5,182.5C 510.354,184.475 508.687,185.975 506.5,187C 492.428,187.621 478.428,188.954 464.5,191C 446.968,195.622 429.301,199.622 411.5,203C 373.34,207.651 336.006,203.984 299.5,192C 270.165,186 240.831,186 211.5,192C 169.177,205.519 126.177,208.186 82.5,200C 57.1495,191.775 31.1495,187.442 4.5,187C 2.31305,185.975 0.646381,184.475 -0.5,182.5C -0.5,179.833 -0.5,177.167 -0.5,174.5C 0.853406,172.817 2.52007,171.484 4.5,170.5 Z"/></g>
<g><path style="opacity:1" fill="#040709" d="M 511.5,208.5 C 511.5,211.5 511.5,214.5 511.5,217.5C 509.833,218.5 508.5,219.833 507.5,221.5C 490.308,220.81 473.308,222.31 456.5,226C 404.818,242.599 353.151,242.599 301.5,226C 270.813,220.073 240.147,220.073 209.5,226C 169.927,239.032 129.594,242.032 88.5,235C 71.9201,230.688 55.2534,226.688 38.5,223C 26.8584,221.895 15.1917,221.395 3.5,221.5C 2.5,219.833 1.16667,218.5 -0.5,217.5C -0.5,214.5 -0.5,211.5 -0.5,208.5C 1.43331,206.404 3.76664,204.904 6.5,204C 24.0193,203.6 41.3526,205.266 58.5,209C 92.3958,220.248 127.062,223.581 162.5,219C 180.195,215.16 197.862,211.16 215.5,207C 240.118,202.92 264.784,202.586 289.5,206C 309.207,210.177 328.873,214.51 348.5,219C 383.938,223.581 418.604,220.248 452.5,209C 469.647,205.266 486.981,203.6 504.5,204C 507.233,204.904 509.567,206.404 511.5,208.5 Z"/></g>
<g><path style="opacity:0.976" fill="#b5f7fc" d="M 3.5,221.5 C 15.1917,221.395 26.8584,221.895 38.5,223C 55.2534,226.688 71.9201,230.688 88.5,235C 129.594,242.032 169.927,239.032 209.5,226C 240.147,220.073 270.813,220.073 301.5,226C 353.151,242.599 404.818,242.599 456.5,226C 473.308,222.31 490.308,220.81 507.5,221.5C 508.5,223.167 509.833,224.5 511.5,225.5C 511.5,228.5 511.5,231.5 511.5,234.5C 510.038,235.458 508.705,236.624 507.5,238C 493.467,238.954 479.467,240.287 465.5,242C 447.935,246.475 430.268,250.475 412.5,254C 373.724,258.923 335.724,255.256 298.5,243C 269.833,237 241.167,237 212.5,243C 175.276,255.256 137.276,258.923 98.5,254C 80.7316,250.475 63.0649,246.475 45.5,242C 31.5331,240.287 17.5331,238.954 3.5,238C 2.29493,236.624 0.961599,235.458 -0.5,234.5C -0.5,231.5 -0.5,228.5 -0.5,225.5C 1.16667,224.5 2.5,223.167 3.5,221.5 Z"/></g>
<g><path style="opacity:1" fill="#040608" d="M 511.5,259.5 C 511.5,262.5 511.5,265.5 511.5,268.5C 509.833,269.5 508.5,270.833 507.5,272.5C 480.415,272.059 454.082,276.226 428.5,285C 385.116,293.147 342.45,290.48 300.5,277C 273.939,271.905 247.273,271.238 220.5,275C 203.168,279 185.835,283 168.5,287C 140.574,290.725 112.741,290.225 85,285.5C 68.3628,280.799 51.5295,276.966 34.5,274C 24.1966,272.868 13.8633,272.368 3.5,272.5C 2.5,270.833 1.16667,269.5 -0.5,268.5C -0.5,265.5 -0.5,262.5 -0.5,259.5C 0.961599,258.542 2.29493,257.376 3.5,256C 16.1932,255.273 28.8599,255.606 41.5,257C 57.3499,259.879 73.0165,263.546 88.5,268C 128.158,275.185 167.158,272.519 205.5,260C 233.012,255.249 260.679,254.249 288.5,257C 306.268,260.525 323.935,264.525 341.5,269C 368.552,273.662 395.552,273.329 422.5,268C 437.983,263.546 453.65,259.879 469.5,257C 482.14,255.606 494.807,255.273 507.5,256C 508.705,257.376 510.038,258.542 511.5,259.5 Z"/></g>
<g><path style="opacity:0.974" fill="#b5f7fc" d="M 3.5,272.5 C 13.8633,272.368 24.1966,272.868 34.5,274C 51.5295,276.966 68.3628,280.799 85,285.5C 112.741,290.225 140.574,290.725 168.5,287C 185.835,283 203.168,279 220.5,275C 247.273,271.238 273.939,271.905 300.5,277C 342.45,290.48 385.116,293.147 428.5,285C 454.082,276.226 480.415,272.059 507.5,272.5C 508.5,274.167 509.833,275.5 511.5,276.5C 511.5,279.5 511.5,282.5 511.5,285.5C 509.567,287.596 507.233,289.096 504.5,290C 493.809,290.304 483.142,290.971 472.5,292C 452.871,296.491 433.204,300.824 413.5,305C 390.5,308.333 367.5,308.333 344.5,305C 324.873,300.51 305.207,296.177 285.5,292C 265.5,290 245.5,290 225.5,292C 205.793,296.177 186.127,300.51 166.5,305C 139.395,308.648 112.395,307.981 85.5,303C 69.9345,298.858 54.2678,295.192 38.5,292C 27.8578,290.971 17.1912,290.304 6.5,290C 3.76664,289.096 1.43331,287.596 -0.5,285.5C -0.5,282.5 -0.5,279.5 -0.5,276.5C 1.16667,275.5 2.5,274.167 3.5,272.5 Z"/></g>
<g><path style="opacity:1" fill="#050709" d="M 511.5,311.5 C 511.5,314.167 511.5,316.833 511.5,319.5C 510.147,321.183 508.48,322.516 506.5,323.5C 492.134,324.074 477.8,325.241 463.5,327C 446.656,331.636 429.656,335.636 412.5,339C 390.158,340.928 367.825,340.928 345.5,339C 325.907,334.372 306.24,330.039 286.5,326C 250.653,321.221 215.653,324.554 181.5,336C 148.156,341.986 114.823,341.986 81.5,336C 56.4679,327.824 30.8013,323.657 4.5,323.5C 2.52007,322.516 0.853406,321.183 -0.5,319.5C -0.5,316.833 -0.5,314.167 -0.5,311.5C 0.646381,309.525 2.31305,308.025 4.5,307C 22.0164,305.926 39.3497,307.259 56.5,311C 91.7357,322.79 127.736,326.124 164.5,321C 178.648,318.296 192.648,314.963 206.5,311C 233.016,306.289 259.683,305.289 286.5,308C 304.629,311.365 322.629,315.365 340.5,320C 364.445,324.198 388.445,324.531 412.5,321C 432.059,316.194 451.726,311.86 471.5,308C 483.14,306.64 494.807,306.307 506.5,307C 508.687,308.025 510.354,309.525 511.5,311.5 Z"/></g>
<g><path style="opacity:0.976" fill="#b5f7fc" d="M 4.5,323.5 C 30.8013,323.657 56.4679,327.824 81.5,336C 114.823,341.986 148.156,341.986 181.5,336C 215.653,324.554 250.653,321.221 286.5,326C 306.24,330.039 325.907,334.372 345.5,339C 367.825,340.928 390.158,340.928 412.5,339C 429.656,335.636 446.656,331.636 463.5,327C 477.8,325.241 492.134,324.074 506.5,323.5C 508.5,324.833 510.167,326.5 511.5,328.5C 511.5,331.167 511.5,333.833 511.5,336.5C 510.146,338.696 508.146,340.196 505.5,341C 495.143,341.319 484.809,341.985 474.5,343C 452.268,348.141 429.935,352.808 407.5,357C 386.126,359.199 364.792,358.865 343.5,356C 323.873,351.51 304.207,347.177 284.5,343C 265.167,341 245.833,341 226.5,343C 204.261,348.143 181.927,352.81 159.5,357C 134.353,359.615 109.353,358.615 84.5,354C 58.8182,345.664 32.4849,341.331 5.5,341C 2.85408,340.196 0.854084,338.696 -0.5,336.5C -0.5,333.833 -0.5,331.167 -0.5,328.5C 0.833333,326.5 2.5,324.833 4.5,323.5 Z"/></g>
</svg>
